<?xml version="1.0" encoding="UTF-8"?>
<svg id="Layer_1" xmlns="http://www.w3.org/2000/svg" xmlns:xlink="http://www.w3.org/1999/xlink" viewBox="0 0 2000 2000">
  <defs>
    <style>
      .cls-1 {
        fill: #191a1c;
      }

      .cls-2 {
        fill: url(#linear-gradient-2);
      }

      .cls-3 {
        fill: #fff;
      }

      .cls-4 {
        fill: url(#linear-gradient-4);
      }

      .cls-5 {
        fill: url(#linear-gradient-3);
      }

      .cls-6 {
        clip-path: url(#clippath-1);
      }

      .cls-7 {
        clip-path: url(#clippath-3);
      }

      .cls-8 {
        clip-rule: evenodd;
        fill: none;
      }

      .cls-9 {
        clip-path: url(#clippath-2);
      }

      .cls-10 {
        fill: url(#linear-gradient);
      }

      .cls-11 {
        clip-path: url(#clippath);
      }
    </style>
    <clipPath id="clippath">
      <path class="cls-8" d="M1344.86,854.61c0,196.28-159.12,355.4-355.4,355.4-131.8,0-246.84-71.75-308.2-178.31,55.09,76.51,144.92,126.34,246.4,126.34,167.57,0,303.42-135.85,303.42-303.42s-135.85-303.42-303.42-303.42c-101.48,0-191.31,49.83-246.4,126.34,61.36-106.57,176.4-178.31,308.2-178.31,196.28,0,355.4,159.12,355.4,355.4"/>
    </clipPath>
    <linearGradient id="linear-gradient" x1="632.67" y1="854.61" x2="1556.96" y2="854.61" gradientUnits="userSpaceOnUse">
      <stop offset="0" stop-color="#021b8c"/>
      <stop offset=".15" stop-color="#042a97"/>
      <stop offset=".45" stop-color="#0954b5"/>
      <stop offset=".87" stop-color="#1297e6"/>
      <stop offset="1" stop-color="#15aff7"/>
    </linearGradient>
    <clipPath id="clippath-1">
      <path class="cls-8" d="M775.55,581.87c28.08-15.67,58.55-26.97,90.41-33.37,119.58-37.86,253.88-2.87,339.45,95.87,104.56,120.66,104.56,299.83,0,420.49-85.57,98.74-219.87,133.72-339.45,95.87-31.86-6.4-62.33-17.7-90.41-33.37,60,47.07,134.89,73.83,213.91,73.83,191.41,0,346.58-155.16,346.58-346.58s-155.17-346.58-346.58-346.58c-79.02,0-153.91,26.77-213.91,73.83"/>
    </clipPath>
    <linearGradient id="linear-gradient-2" x1="632.67" y1="854.61" x2="1556.96" y2="854.61" gradientUnits="userSpaceOnUse">
      <stop offset="0" stop-color="#021b8c"/>
      <stop offset=".34" stop-color="#0957b7"/>
      <stop offset=".64" stop-color="#0f87da"/>
      <stop offset=".87" stop-color="#13a4ef"/>
      <stop offset="1" stop-color="#15aff7"/>
    </linearGradient>
    <clipPath id="clippath-2">
      <path class="cls-8" d="M1122.35,805.48h0v98.27h-112.3v112.3h-98.27v-112.3h-112.3v-98.27h112.3v-112.3h98.27v112.3h112.3ZM1147.21,1016.05c-49.61,67.36-129.47,111.08-219.55,111.08-150.51,0-272.52-122.01-272.52-272.52s122.01-272.52,272.52-272.52c90.08,0,169.94,43.72,219.55,111.08-44.51-50.04-109.38-81.58-181.63-81.58-134.21,0-243.02,108.8-243.02,243.02s108.8,243.02,243.02,243.02c72.25,0,137.12-31.54,181.63-81.58Z"/>
    </clipPath>
    <linearGradient id="linear-gradient-3" x1="582.08" y1="854.61" x2="1344.88" y2="854.61" gradientUnits="userSpaceOnUse">
      <stop offset="0" stop-color="#045304"/>
      <stop offset=".15" stop-color="#0d5c05"/>
      <stop offset=".41" stop-color="#267707"/>
      <stop offset=".75" stop-color="#4fa10c"/>
      <stop offset="1" stop-color="#73c710"/>
    </linearGradient>
    <clipPath id="clippath-3">
      <path class="cls-8" d="M1116.27,811.57h-112.3v-112.3h-86.1v112.3h-112.3v86.1h112.3v112.3h86.1v-112.3h112.3v-86.1ZM1064.32,1083.37c-30.78,13.29-64.29,20.35-98.74,20.35-137.57,0-249.1-111.53-249.1-249.11s111.53-249.11,249.1-249.11c34.45,0,67.96,7.06,98.74,20.35-40.7-24.34-87.72-37.67-136.66-37.67-147.15,0-266.43,119.28-266.43,266.43s119.28,266.43,266.43,266.43c48.94,0,95.97-13.33,136.66-37.67Z"/>
    </clipPath>
    <linearGradient id="linear-gradient-4" x1="527.08" x2="1254.46" xlink:href="#linear-gradient-3"/>
  </defs>
  <rect class="cls-3" width="2000" height="2000"/>
  <g class="cls-11">
    <rect class="cls-10" x="681.26" y="499.22" width="663.6" height="710.79"/>
  </g>
  <g class="cls-6">
    <rect class="cls-2" x="775.55" y="508.04" width="560.49" height="693.15"/>
  </g>
  <g class="cls-9">
    <rect class="cls-5" x="655.14" y="582.1" width="492.07" height="545.03"/>
  </g>
  <g class="cls-7">
    <rect class="cls-4" x="661.23" y="588.18" width="455.04" height="532.86"/>
  </g>
  <path class="cls-1" d="M1482.02,1386.49h-52.81v-21.23h50.93v-16.53h-50.93v-21.77h52.81v-17.2h-70.41v94.2h70.41v-17.47ZM1357.02,1326.29c11.15,0,16.13,7.55,16.13,15.12s-4.84,15.12-16.13,15.12h-27.01v-30.24h27.01ZM1395.59,1402.75l-28.49-32.11c17.87-3.63,23.79-16.66,23.79-29.63,0-16.33-11.69-31.11-33.86-31.24-14.91.13-29.83,0-44.75,0v94.2h17.74v-31.44h17.07l27.41,31.44h21.1v-1.21ZM1260.77,1369.69h-34.94l17.47-40.13,17.47,40.13ZM1275.82,1403.96h19.35l-42.19-94.2h-19.35l-42.19,94.2h19.22l8.06-17.74h49.18l7.93,17.74ZM1174.2,1379.9c-6.18,6.18-15.45,9.54-23.65,9.54-23.25,0-32.25-16.26-32.38-31.85-.13-15.72,9.67-32.65,32.38-32.65,8.2,0,16.53,2.82,22.71,8.87l11.82-11.42c-9.68-9.54-21.77-14.38-34.53-14.38-34,0-49.99,24.99-49.85,49.59.13,24.45,14.92,48.51,49.85,48.51,13.57,0,26.07-4.43,35.74-13.98l-12.09-12.23ZM1077.69,1403.96v-93.93h-17.6v39.64h-46.23v-39.64h-17.74v93.93h17.74v-37.89h46.23v37.89h17.6ZM928.63,1403.96h17.74v-78.07h29.83v-16.13h-77.4v16.13h29.83v78.07ZM830.64,1309.76v94.2h66.11v-16.39h-48.38v-77.81h-17.74ZM777.79,1369.69h-34.94l17.47-40.13,17.47,40.13ZM792.84,1403.96h19.35l-42.19-94.2h-19.35l-42.19,94.2h19.21l8.06-17.74h49.18l7.93,17.74ZM695.38,1386.49h-52.81v-21.23h50.93v-16.53h-50.93v-21.77h52.81v-17.2h-70.41v94.2h70.41v-17.47ZM599.54,1403.96v-93.93h-17.6v39.64h-46.23v-39.64h-17.74v93.93h17.74v-37.89h46.23v37.89h17.6Z"/>
  <path class="cls-1" d="M1224.4,1478.14l-27.51-34.86h-8.58v56.22h10.59v-37.91l29.52,37.91h6.58v-56.22h-10.59v34.86ZM1145.54,1451.85c13.23,0,18.53,10.59,18.37,20.05-.16,9.22-5.13,19.17-18.37,19.17s-18.21-9.87-18.45-19.09c-.24-9.46,5.21-20.13,18.45-20.13ZM1145.54,1442.23c-19.41,0-28.87,14.84-28.87,29.6s9.14,28.96,28.87,28.96,28.63-14.52,28.79-29.03c.16-14.68-9.46-29.52-28.79-29.52ZM1100.61,1485.14c-3.69,3.69-9.22,5.7-14.12,5.7-13.87,0-19.25-9.7-19.33-19.01-.08-9.38,5.78-19.49,19.33-19.49,4.89,0,9.87,1.68,13.56,5.29l7.06-6.82c-5.77-5.69-12.99-8.58-20.61-8.58-20.29,0-29.84,14.92-29.76,29.6.08,14.6,8.9,28.96,29.76,28.96,8.1,0,15.56-2.65,21.34-8.34l-7.22-7.3ZM1043,1499.5v-56.22h-10.51v56.22h10.51ZM974.24,1451.85c13.23,0,18.53,10.59,18.37,20.05-.16,9.22-5.13,19.17-18.37,19.17s-18.21-9.87-18.45-19.09c-.24-9.46,5.21-20.13,18.45-20.13ZM974.24,1442.23c-19.41,0-28.87,14.84-28.87,29.6s9.14,28.96,28.87,28.96,28.63-14.52,28.79-29.03c.16-14.68-9.46-29.52-28.79-29.52ZM932.28,1450.33c-5.78-5.7-13.31-8.58-20.85-8.58-19.81,0-29.68,14.6-29.68,30.4,0,14.76,8.58,28.64,29.68,28.64,9.87,0,16.84-3.77,22.38-10.11v-23.66h-24.06v9.46h14.36v9.95c-4.41,3.53-8.26,4.49-12.67,4.49-13.96,0-19.33-9.54-19.33-18.77,0-11.55,7.3-20.69,19.33-20.69,4.89,0,10.51,2,14.28,5.61l6.58-6.74ZM842.02,1451.85c13.23,0,18.53,10.59,18.37,20.05-.16,9.22-5.13,19.17-18.37,19.17s-18.21-9.87-18.45-19.09c-.24-9.46,5.21-20.13,18.45-20.13ZM842.02,1442.23c-19.41,0-28.87,14.84-28.87,29.6s9.14,28.96,28.87,28.96,28.63-14.52,28.79-29.03c.16-14.68-9.46-29.52-28.79-29.52ZM765,1443.27v56.22h39.46v-9.78h-28.87v-46.44h-10.59Z"/>
</svg>